<svg xmlns="http://www.w3.org/2000/svg" viewBox="0 0 631.25 473.44"><defs><style>.cls-1{fill:#fff;}</style></defs><title>12Asset 29</title><g id="Layer_2" data-name="Layer 2"><g id="Layer_1-2" data-name="Layer 1"><polygon class="cls-1" points="229.6 312.69 74.7 157.79 0.02 157.79 0 157.81 157.81 315.63 192.24 350.05 315.63 473.44 352.99 436.08 229.6 312.69"/><polygon class="cls-1" points="588.6 115.16 473.44 0 408.68 0 523.84 115.16 588.6 115.16"/><polygon class="cls-1" points="598.87 190.19 631.25 157.81 631.23 157.79 566.47 157.79 598.87 190.19"/><polygon class="cls-1" points="506.19 157.79 348 157.79 134.98 157.79 259.74 282.55 383.13 405.94 473.44 315.63 568.73 220.33 506.19 157.79"/><polygon class="cls-1" points="348.4 0 263.33 0 263.33 0 157.81 0 67.5 90.31 92.35 115.16 349.27 115.16 463.56 115.16 348.4 0"/></g></g></svg>